name Walk2.mot
datacolumns 19
datarows 27
range 1.25000000 1.38000000
endheader

                time	   L_ground_force_vx	   L_ground_force_vy	   L_ground_force_vz	   L_ground_force_px	   L_ground_force_py	   L_ground_force_pz	   R_ground_force_vx	   R_ground_force_vy	   R_ground_force_vz	   R_ground_force_px	   R_ground_force_py	   R_ground_force_pz	   L_ground_torque_x	   L_ground_torque_y	   L_ground_torque_z	   R_ground_torque_x	   R_ground_torque_y	   R_ground_torque_z	
          1.25000000	         41.57914025	        522.06052080	         23.85922222	         -0.13682810	          0.00000000	         -0.03936117	         -0.06361564	          0.62926758	          0.03790626	          0.00044655	          0.00000000	          0.00005245	          0.00000000	          0.69023890	          0.00000000	          0.00000000	          0.00796436	          0.00000000	
          1.25500000	         45.61917364	        534.07865665	         24.82121147	         -0.13644927	          0.00000000	         -0.03925591	         -0.07436868	          0.49084307	          0.02107104	          0.00021422	          0.00000000	          0.00002190	          0.00000000	          0.70816275	          0.00000000	          0.00000000	          0.01111778	          0.00000000	
          1.26000000	         49.73946250	        545.79230794	         25.62057320	         -0.13602491	          0.00000000	         -0.03911072	         -0.08196500	          0.21445197	         -0.00778011	         -0.00017448	          0.00000000	         -0.00002843	          0.00000000	          0.72095155	          0.00000000	          0.00000000	          0.01466402	          0.00000000	
          1.26500000	         53.93531015	        557.06314862	         26.21929762	         -0.13554963	          0.00000000	         -0.03891962	         -0.08370197	         -0.24299465	         -0.05181051	         -0.00075910	          0.00000000	         -0.00010342	          0.00000000	          0.72708385	          0.00000000	          0.00000000	          0.01838547	          0.00000000	
          1.27000000	         58.19998953	        567.75601609	         26.58617632	         -0.13502019	          0.00000000	         -0.03867868	         -0.07608775	         -0.92635957	         -0.11408092	         -0.00157711	          0.00000000	         -0.00020759	          0.00000000	          0.72577583	          0.00000000	          0.00000000	          0.02192117	          0.00000000	
          1.27500000	         62.52210604	        577.73496313	         26.69790168	         -0.13443489	          0.00000000	         -0.03838621	         -0.05483055	         -1.87773881	         -0.19711475	         -0.00265821	          0.00000000	         -0.00034444	          0.00000000	          0.71720467	          0.00000000	          0.00000000	          0.02473119	          0.00000000	
          1.28000000	         66.88287372	        586.85904606	         26.53935771	         -0.13379305	          0.00000000	         -0.03804157	         -0.01492035	         -3.12972238	         -0.30228625	         -0.00401623	          0.00000000	         -0.00051535	          0.00000000	          0.70248753	          0.00000000	          0.00000000	          0.02606301	          0.00000000	
          1.28500000	         71.25854722	        594.97963895	         26.10298122	         -0.13309403	          0.00000000	         -0.03764408	          0.04915490	         -4.69605749	         -0.42900816	         -0.00563857	          0.00000000	         -0.00071832	          0.00000000	          0.68293169	          0.00000000	          0.00000000	          0.02492554	          0.00000000	
          1.29000000	         75.62378861	        601.94119767	         25.38763137	         -0.13233687	          0.00000000	         -0.03719307	          0.14301037	         -6.55941293	         -0.57370699	         -0.00747303	          0.00000000	         -0.00094623	          0.00000000	          0.65965562	          0.00000000	          0.00000000	          0.02007776	          0.00000000	
          1.29500000	         79.95251959	        607.58175562	         24.39728391	         -0.13152127	          0.00000000	         -0.03668808	          0.27172949	         -8.65613179	         -0.72859323	         -0.00941200	          0.00000000	         -0.00118493	          0.00000000	          0.63332868	          0.00000000	          0.00000000	          0.01004209	          0.00000000	
          1.30000000	         84.21706090	        611.73646805	         23.13997620	         -0.13064855	          0.00000000	         -0.03613025	          0.43893960	        -10.85816853	         -0.88026367	         -0.01127484	          0.00000000	         -0.00141103	          0.00000000	          0.60450771	          0.00000000	          0.00000000	         -0.00684581	          0.00000000	
          1.30500000	         88.38919203	        614.24562872	         21.62732744	         -0.12972190	          0.00000000	         -0.03552241	          0.64555007	        -12.95286286	         -1.00821426	         -0.01278921	          0.00000000	         -0.00158957	          0.00000000	          0.57346358	          0.00000000	          0.00000000	         -0.03233618	          0.00000000	
          1.31000000	         92.43769218	        614.96107569	         19.87427080	         -0.12874622	          0.00000000	         -0.03486829	          0.88811980	        -14.62183499	         -1.08339669	         -0.01357342	          0.00000000	         -0.00167196	          0.00000000	          0.54050810	          0.00000000	          0.00000000	         -0.06809739	          0.00000000	
          1.31500000	         96.32744243	        613.74787919	         17.89947121	         -0.12772801	          0.00000000	         -0.03417214	          1.15684800	        -15.42111342	         -1.06702140	         -0.01312232	          0.00000000	         -0.00159422	          0.00000000	          0.50595877	          0.00000000	          0.00000000	         -0.11546436	          0.00000000	
          1.32000000	        100.01772028	        610.48654754	         15.72675626	         -0.12667598	          0.00000000	         -0.03343921	          1.43322546	        -14.76563568	         -0.90989241	         -0.01080052	          0.00000000	         -0.00127640	          0.00000000	          0.47058190	          0.00000000	          0.00000000	         -0.17508746	          0.00000000	
          1.32500000	        103.46215933	        605.06944698	         13.38623416	         -0.12559867	          0.00000000	         -0.03267635	          1.68744592	        -11.92247949	         -0.55265337	         -0.00584795	          0.00000000	         -0.00062337	          0.00000000	          0.43514661	          0.00000000	          0.00000000	         -0.24646932	          0.00000000	
          1.33000000	        106.60828853	        597.39431469	         10.91325184	         -0.12450425	          0.00000000	         -0.03189030	          1.87576269	         -6.01854291	          0.07257563	          0.00259620	          0.00000000	          0.00047183	          0.00000000	          0.40006385	          0.00000000	          0.00000000	         -0.32738415	          0.00000000	
          1.33500000	        109.39756872	        587.36286852	          8.34740466	         -0.12340053	          0.00000000	         -0.03108791	          1.93808582	          3.93019135	          1.03859443	          0.01544365	          0.00000000	          0.00212147	          0.00000000	          0.36555070	          0.00000000	          0.00000000	         -0.41318543	          0.00000000	
          1.34000000	        111.76332776	        574.87793165	          5.73136759	         -0.12229318	          0.00000000	         -0.03027561	          1.79625084	         18.95934275	          2.41689668	          0.03357307	          0.00000000	          0.00443225	          0.00000000	          0.33198731	          0.00000000	          0.00000000	         -0.49602484	          0.00000000	
          1.34500000	        113.62845071	        559.84235913	          3.10915004	         -0.12118436	          0.00000000	         -0.02945760	          1.35354808	         40.05727715	          4.26812203	          0.05770322	          0.00000000	          0.00748901	          0.00000000	          0.29962421	          0.00000000	          0.00000000	         -0.56402915	          0.00000000	
          1.35000000	        114.90288737	        542.16821740	          0.52397589	         -0.12007242	          0.00000000	         -0.02863469	          0.49627589	         68.01678090	          6.62850597	          0.08821486	          0.00000000	          0.01133205	          0.00000000	          0.26867202	          0.00000000	          0.00000000	         -0.60051306	          0.00000000	
          1.35500000	        115.48300813	        521.79169663	         -1.98255730	         -0.11895080	          0.00000000	         -0.02780403	         -0.90174171	        103.22788474	          9.49175989	          0.12491472	          0.00000000	          0.01592725	          0.00000000	          0.23923775	          0.00000000	          0.00000000	         -0.58334521	          0.00000000	
          1.36000000	        115.25234358	        498.68786907	         -4.37051311	         -0.11780600	          0.00000000	         -0.02696002	         -2.97057192	        145.40446880	         12.78605943	          0.16673825	          0.00000000	          0.02112864	          0.00000000	          0.21136468	          0.00000000	          0.00000000	         -0.48463115	          0.00000000	
          1.36500000	        114.08811731	        472.89159644	         -6.60016995	         -0.11661572	          0.00000000	         -0.02609224	         -5.83030441	        193.24151951	         16.34626370	          0.21139676	          0.00000000	          0.02663428	          0.00000000	          0.18478938	          0.00000000	          0.00000000	         -0.27093273	          0.00000000	
          1.37000000	        111.87174203	        444.52195115	         -8.62996848	         -0.11534864	          0.00000000	         -0.02518659	         -9.57005078	        244.07032739	         19.88693313	          0.25543202	          0.00000000	          0.03199795	          0.00000000	          0.15938548	          0.00000000	          0.00000000	          0.09511574	          0.00000000	
          1.37500000	        108.50817078	        413.80585803	        -10.41443242	         -0.11396500	          0.00000000	         -0.02422907	        -14.21753788	        294.26611286	         23.01671790	          0.29590428	          0.00000000	          0.03685483	          0.00000000	          0.13520104	          0.00000000	          0.00000000	          0.64718540	          0.00000000	
          1.38000000	        103.95066088	        381.09990279	        -11.90112237	         -0.11241749	          0.00000000	         -0.02320474	        -19.70099710	        340.96369735	         25.32443350	          0.33117390	          0.00000000	          0.04102425	          0.00000000	          0.11246042	          0.00000000	          0.00000000	          1.39893743	          0.00000000	
